<svg width="720" height="180" viewBox="0 0 720 180" fill="none" xmlns="http://www.w3.org/2000/svg">
  <rect width="720" height="180" rx="32" fill="#0F172A"/>
  <g transform="translate(28 22)">
    <rect width="136" height="136" rx="30" fill="#132238"/>
    <path d="M68 16L86 36V96H50V36L68 16Z" fill="#0F172A" stroke="#D7E3F4" stroke-width="6"/>
    <path d="M58 52H78" stroke="#99F6E4" stroke-width="6" stroke-linecap="round"/>
    <path d="M58 68H78" stroke="#99F6E4" stroke-width="6" stroke-linecap="round"/>
    <path d="M68 8V24" stroke="#F4C542" stroke-width="6" stroke-linecap="round"/>
    <path d="M42 44C48 37 57 34 68 34C79 34 88 37 94 44" stroke="#14B8A6" stroke-width="6" stroke-linecap="round"/>
    <path d="M32 68C40 58 52 53 68 53C84 53 96 58 104 68" stroke="#14B8A6" stroke-width="6" stroke-linecap="round" opacity="0.82"/>
    <circle cx="68" cy="114" r="9" fill="#F4C542"/>
  </g>
  <text x="196" y="76" fill="#F8FAFC" font-family="'Space Grotesk', Arial, sans-serif" font-size="48" font-weight="700" letter-spacing="0">Cripto Farol</text>
  <text x="198" y="114" fill="#8EA0B8" font-family="'IBM Plex Sans', Arial, sans-serif" font-size="20" font-weight="500">Enxergue melhor antes de decidir em cripto</text>
</svg>
